<svg width="64" height="74" viewBox="0 0 64 74" fill="none" xmlns="http://www.w3.org/2000/svg">
<path d="M8.67091 12.3558V24.539H16.87V30.3131H8.67091V47H2.31948V6.58181H19.1219V12.3558H8.67091ZM21.1996 6.58181H39.2146V12.2404L27.1469 41.226H39.2146V47H20.6222V41.3415L32.69 12.3558H21.1996V6.58181ZM52.5016 30.2553V24.4813H61.3936V37.2996C61.3936 43.7665 58.1602 47.4619 51.9242 47.4619C45.6883 47.4619 42.4548 43.7665 42.4548 37.2996V16.2822C42.4548 9.81526 45.6883 6.11989 51.9242 6.11989C58.1602 6.11989 61.3936 9.81526 61.3936 16.2822V20.2085H55.3887V15.878C55.3887 12.991 54.1184 11.8939 52.0975 11.8939C50.0766 11.8939 48.8063 12.991 48.8063 15.878V37.7038C48.8063 40.5908 50.0766 41.6302 52.0975 41.6302C54.1184 41.6302 55.3887 40.5908 55.3887 37.7038V30.2553H52.5016Z" fill="#2A303B"/>
<path d="M2.28879 59.5391C2.22287 59.5391 2.16683 59.516 2.12069 59.4698C2.07455 59.4237 2.05147 59.3677 2.05147 59.3018V52.8647C2.05147 52.7922 2.07455 52.7328 2.12069 52.6867C2.16683 52.6406 2.22287 52.6175 2.28879 52.6175H6.58017C6.65268 52.6175 6.71201 52.6406 6.75815 52.6867C6.80429 52.7328 6.82737 52.7922 6.82737 52.8647V53.5568C6.82737 53.6293 6.80429 53.6887 6.75815 53.7348C6.71201 53.7744 6.65268 53.7941 6.58017 53.7941H3.40613V55.6729H6.38241C6.45492 55.6729 6.51425 55.6959 6.56039 55.7421C6.60653 55.7882 6.62961 55.8476 6.62961 55.9201V56.6122C6.62961 56.6781 6.60653 56.7342 6.56039 56.7803C6.51425 56.8265 6.45492 56.8495 6.38241 56.8495H3.40613V59.3018C3.40613 59.3677 3.38305 59.4237 3.33691 59.4698C3.29077 59.516 3.23144 59.5391 3.15893 59.5391H2.28879ZM8.22736 59.5391C8.16144 59.5391 8.10541 59.516 8.05927 59.4698C8.01312 59.4237 7.99005 59.3677 7.99005 59.3018V52.8647C7.99005 52.7922 8.01312 52.7328 8.05927 52.6867C8.10541 52.6406 8.16144 52.6175 8.22736 52.6175H10.7883C11.586 52.6175 12.2155 52.8021 12.677 53.1712C13.1384 53.5404 13.3691 54.0776 13.3691 54.7829C13.3691 55.2708 13.2472 55.6762 13.0033 55.9992C12.7659 56.3222 12.4462 56.5562 12.0441 56.7012L13.4878 59.2226C13.5075 59.2622 13.5174 59.2985 13.5174 59.3314C13.5174 59.3907 13.4944 59.4402 13.4482 59.4797C13.4087 59.5193 13.3625 59.5391 13.3098 59.5391H12.41C12.2979 59.5391 12.2122 59.5094 12.1529 59.4501C12.0936 59.3907 12.0474 59.3314 12.0145 59.2721L10.7389 56.9286H9.36448V59.3018C9.36448 59.3677 9.34141 59.4237 9.29527 59.4698C9.25571 59.516 9.19968 59.5391 9.12717 59.5391H8.22736ZM9.36448 55.8113H10.7587C11.1608 55.8113 11.4607 55.7223 11.6585 55.5443C11.8563 55.3597 11.9551 55.1027 11.9551 54.7731C11.9551 54.4435 11.8563 54.1864 11.6585 54.0018C11.4673 53.8106 11.1674 53.715 10.7587 53.715H9.36448V55.8113ZM14.8805 59.5391C14.8146 59.5391 14.7586 59.516 14.7124 59.4698C14.6663 59.4237 14.6432 59.3677 14.6432 59.3018V52.8647C14.6432 52.7922 14.6663 52.7328 14.7124 52.6867C14.7586 52.6406 14.8146 52.6175 14.8805 52.6175H19.2312C19.3037 52.6175 19.3631 52.6406 19.4092 52.6867C19.4553 52.7328 19.4784 52.7922 19.4784 52.8647V53.5173C19.4784 53.5832 19.4553 53.6392 19.4092 53.6854C19.3631 53.7315 19.3037 53.7546 19.2312 53.7546H15.9781V55.5048H19.0137C19.0862 55.5048 19.1455 55.5278 19.1917 55.574C19.2378 55.6135 19.2609 55.6696 19.2609 55.7421V56.3551C19.2609 56.4276 19.2378 56.487 19.1917 56.5331C19.1455 56.5727 19.0862 56.5924 19.0137 56.5924H15.9781V58.4019H19.3103C19.3828 58.4019 19.4422 58.425 19.4883 58.4712C19.5344 58.5173 19.5575 58.5766 19.5575 58.6491V59.3018C19.5575 59.3677 19.5344 59.4237 19.4883 59.4698C19.4422 59.516 19.3828 59.5391 19.3103 59.5391H14.8805ZM21.0315 59.5391C20.9656 59.5391 20.9096 59.516 20.8634 59.4698C20.8173 59.4237 20.7942 59.3677 20.7942 59.3018V52.8647C20.7942 52.7922 20.8173 52.7328 20.8634 52.6867C20.9096 52.6406 20.9656 52.6175 21.0315 52.6175H25.3822C25.4547 52.6175 25.5141 52.6406 25.5602 52.6867C25.6064 52.7328 25.6294 52.7922 25.6294 52.8647V53.5173C25.6294 53.5832 25.6064 53.6392 25.5602 53.6854C25.5141 53.7315 25.4547 53.7546 25.3822 53.7546H22.1291V55.5048H25.1647C25.2372 55.5048 25.2965 55.5278 25.3427 55.574C25.3888 55.6135 25.4119 55.6696 25.4119 55.7421V56.3551C25.4119 56.4276 25.3888 56.487 25.3427 56.5331C25.2965 56.5727 25.2372 56.5924 25.1647 56.5924H22.1291V58.4019H25.4613C25.5338 58.4019 25.5932 58.425 25.6393 58.4712C25.6855 58.5173 25.7085 58.5766 25.7085 58.6491V59.3018C25.7085 59.3677 25.6855 59.4237 25.6393 59.4698C25.5932 59.516 25.5338 59.5391 25.4613 59.5391H21.0315ZM29.0565 59.5391C28.9905 59.5391 28.9345 59.516 28.8884 59.4698C28.8422 59.4237 28.8191 59.3644 28.8191 59.2919V58.5997C28.8191 58.5008 28.8389 58.4217 28.8785 58.3624C28.918 58.3031 28.9477 58.2602 28.9675 58.2338L32.4085 53.7843H29.1553C29.0828 53.7843 29.0235 53.7612 28.9774 53.715C28.9378 53.6689 28.918 53.6129 28.918 53.547V52.8647C28.918 52.7922 28.9378 52.7328 28.9774 52.6867C29.0235 52.6406 29.0828 52.6175 29.1553 52.6175H33.8818C33.9543 52.6175 34.0136 52.6406 34.0598 52.6867C34.1059 52.7328 34.129 52.7922 34.129 52.8647V53.547C34.129 53.6261 34.1158 53.692 34.0894 53.7447C34.0631 53.7974 34.0334 53.8469 34.0004 53.893L30.6286 58.3624H33.9906C34.0631 58.3624 34.1224 58.3855 34.1685 58.4316C34.2147 58.4778 34.2378 58.5371 34.2378 58.6096V59.3018C34.2378 59.3677 34.2147 59.4237 34.1685 59.4698C34.1224 59.516 34.0631 59.5391 33.9906 59.5391H29.0565ZM37.9867 59.6379C37.4 59.6379 36.8957 59.5424 36.4738 59.3512C36.0519 59.1534 35.7223 58.8535 35.485 58.4514C35.2477 58.0427 35.1192 57.5351 35.0994 56.9286C35.0928 56.6452 35.0895 56.365 35.0895 56.0882C35.0895 55.8113 35.0928 55.5278 35.0994 55.2378C35.1192 54.6379 35.251 54.1369 35.4949 53.7348C35.7388 53.3327 36.0717 53.0295 36.4936 52.8251C36.9221 52.6208 37.4198 52.5186 37.9867 52.5186C38.5536 52.5186 39.0513 52.6208 39.4798 52.8251C39.9083 53.0295 40.2444 53.3327 40.4883 53.7348C40.7322 54.1369 40.8641 54.6379 40.8839 55.2378C40.897 55.5278 40.9036 55.8113 40.9036 56.0882C40.9036 56.365 40.897 56.6452 40.8839 56.9286C40.8641 57.5351 40.7355 58.0427 40.4982 58.4514C40.2609 58.8535 39.928 59.1534 39.4995 59.3512C39.0777 59.5424 38.5734 59.6379 37.9867 59.6379ZM37.9867 58.5008C38.4152 58.5008 38.7645 58.3756 39.0348 58.1251C39.3051 57.868 39.4501 57.4527 39.4699 56.8792C39.4831 56.5892 39.4897 56.3222 39.4897 56.0783C39.4897 55.8278 39.4831 55.5608 39.4699 55.2773C39.4567 54.895 39.3842 54.5852 39.2523 54.3479C39.1271 54.104 38.9557 53.9293 38.7382 53.8238C38.5206 53.7117 38.2701 53.6557 37.9867 53.6557C37.7098 53.6557 37.4626 53.7117 37.2451 53.8238C37.0276 53.9293 36.8529 54.104 36.721 54.3479C36.5958 54.5852 36.5266 54.895 36.5134 55.2773C36.5068 55.5608 36.5035 55.8278 36.5035 56.0783C36.5035 56.3222 36.5068 56.5892 36.5134 56.8792C36.5332 57.4527 36.6782 57.868 36.9485 58.1251C37.2187 58.3756 37.5648 58.5008 37.9867 58.5008ZM42.4394 59.5391C42.3734 59.5391 42.3174 59.516 42.2713 59.4698C42.2251 59.4237 42.2021 59.3677 42.2021 59.3018V52.8647C42.2021 52.7922 42.2251 52.7328 42.2713 52.6867C42.3174 52.6406 42.3734 52.6175 42.4394 52.6175H43.2007C43.293 52.6175 43.3589 52.6406 43.3985 52.6867C43.4446 52.7262 43.4743 52.7559 43.4875 52.7757L46.3352 57.2055V52.8647C46.3352 52.7922 46.355 52.7328 46.3946 52.6867C46.4407 52.6406 46.5 52.6175 46.5725 52.6175H47.4031C47.4756 52.6175 47.535 52.6406 47.5811 52.6867C47.6273 52.7328 47.6503 52.7922 47.6503 52.8647V59.2919C47.6503 59.3644 47.6273 59.4237 47.5811 59.4698C47.535 59.516 47.4789 59.5391 47.413 59.5391H46.6418C46.5495 59.5391 46.4835 59.516 46.444 59.4698C46.4044 59.4237 46.3748 59.394 46.355 59.3809L43.5172 55.0499V59.3018C43.5172 59.3677 43.4941 59.4237 43.4479 59.4698C43.4018 59.516 43.3425 59.5391 43.27 59.5391H42.4394ZM49.4305 59.5391C49.3646 59.5391 49.3085 59.516 49.2624 59.4698C49.2162 59.4237 49.1932 59.3677 49.1932 59.3018V52.8647C49.1932 52.7922 49.2162 52.7328 49.2624 52.6867C49.3085 52.6406 49.3646 52.6175 49.4305 52.6175H53.7812C53.8537 52.6175 53.913 52.6406 53.9592 52.6867C54.0053 52.7328 54.0284 52.7922 54.0284 52.8647V53.5173C54.0284 53.5832 54.0053 53.6392 53.9592 53.6854C53.913 53.7315 53.8537 53.7546 53.7812 53.7546H50.528V55.5048H53.5636C53.6362 55.5048 53.6955 55.5278 53.7416 55.574C53.7878 55.6135 53.8108 55.6696 53.8108 55.7421V56.3551C53.8108 56.4276 53.7878 56.487 53.7416 56.5331C53.6955 56.5727 53.6362 56.5924 53.5636 56.5924H50.528V58.4019H53.8603C53.9328 58.4019 53.9921 58.425 54.0383 58.4712C54.0844 58.5173 54.1075 58.5766 54.1075 58.6491V59.3018C54.1075 59.3677 54.0844 59.4237 54.0383 59.4698C53.9921 59.516 53.9328 59.5391 53.8603 59.5391H49.4305ZM57.747 59.6379C57.1339 59.6379 56.6197 59.549 56.2044 59.371C55.7957 59.1864 55.4826 58.9491 55.2651 58.659C55.0541 58.3624 54.9421 58.0526 54.9289 57.7296C54.9289 57.6702 54.9487 57.6208 54.9882 57.5812C55.0278 57.5417 55.0772 57.5219 55.1365 57.5219H56.0166C56.1023 57.5219 56.1649 57.5417 56.2044 57.5812C56.2506 57.6142 56.2901 57.6571 56.3231 57.7098C56.3626 57.835 56.4384 57.9603 56.5505 58.0855C56.6626 58.2042 56.8142 58.3031 57.0054 58.3822C57.2031 58.4613 57.4503 58.5008 57.747 58.5008C58.2216 58.5008 58.5742 58.4217 58.805 58.2635C59.0423 58.1053 59.1609 57.8911 59.1609 57.6208C59.1609 57.4296 59.0983 57.278 58.9731 57.1659C58.8478 57.0473 58.6534 56.9418 58.3897 56.8495C58.1326 56.7507 57.7898 56.6485 57.3613 56.543C56.8669 56.4244 56.4516 56.2826 56.1154 56.1178C55.7858 55.9464 55.5353 55.7322 55.364 55.4751C55.1992 55.218 55.1168 54.8917 55.1168 54.4962C55.1168 54.1139 55.2189 53.7744 55.4233 53.4777C55.6342 53.1811 55.9309 52.9471 56.3132 52.7757C56.7021 52.6043 57.1636 52.5186 57.6975 52.5186C58.126 52.5186 58.505 52.5779 58.8346 52.6966C59.1642 52.8086 59.4378 52.9603 59.6553 53.1514C59.8729 53.336 60.0377 53.5371 60.1497 53.7546C60.2684 53.9655 60.331 54.1732 60.3376 54.3775C60.3376 54.4303 60.3178 54.4797 60.2783 54.5259C60.2453 54.5654 60.1959 54.5852 60.13 54.5852H59.2104C59.1576 54.5852 59.1049 54.572 59.0522 54.5456C58.9994 54.5193 58.9566 54.4698 58.9236 54.3973C58.8841 54.193 58.7555 54.0183 58.538 53.8733C58.3205 53.7282 58.0403 53.6557 57.6975 53.6557C57.3415 53.6557 57.0548 53.7216 56.8373 53.8535C56.6197 53.9853 56.511 54.1897 56.511 54.4665C56.511 54.6511 56.5637 54.806 56.6692 54.9313C56.7812 55.0499 56.9559 55.1554 57.1932 55.2477C57.4371 55.34 57.7568 55.4388 58.1524 55.5443C58.7127 55.6696 59.1708 55.8146 59.5268 55.9794C59.8828 56.1442 60.1431 56.3551 60.3079 56.6122C60.4727 56.8627 60.5551 57.1824 60.5551 57.5714C60.5551 58.0064 60.4365 58.3789 60.1992 58.6887C59.9685 58.9919 59.6421 59.2259 59.2203 59.3907C58.7984 59.5555 58.3073 59.6379 57.747 59.6379Z" fill="#2A303B"/>
<path d="M5.32434 72.7559C4.51572 72.7559 3.82576 72.6152 3.25445 72.334C2.69194 72.0527 2.25247 71.6484 1.93606 71.1211C1.62843 70.5849 1.46143 69.9477 1.43507 69.2094C1.42628 68.8314 1.42188 68.4271 1.42188 67.9965C1.42188 67.557 1.42628 67.1439 1.43507 66.7572C1.46143 66.0276 1.62843 65.4036 1.93606 64.885C2.25247 64.3665 2.69633 63.9666 3.26764 63.6853C3.84773 63.404 4.5333 63.2634 5.32434 63.2634C5.96596 63.2634 6.52847 63.3513 7.01188 63.5271C7.4953 63.6941 7.89521 63.9138 8.21162 64.1863C8.53683 64.45 8.77853 64.7356 8.93674 65.0432C9.10374 65.3509 9.19163 65.6365 9.20042 65.9002C9.20921 65.9793 9.18724 66.0452 9.1345 66.098C9.08177 66.1507 9.01145 66.1771 8.92356 66.1771H7.56561C7.47772 66.1771 7.4118 66.1595 7.36785 66.1243C7.3239 66.0892 7.28435 66.0364 7.24919 65.9661C7.17888 65.7815 7.06901 65.6014 6.9196 65.4256C6.77018 65.241 6.56802 65.0872 6.31313 64.9641C6.05824 64.8411 5.72864 64.7796 5.32434 64.7796C4.72666 64.7796 4.24764 64.9378 3.88728 65.2542C3.53571 65.5706 3.34674 66.0936 3.32037 66.8231C3.294 67.5877 3.294 68.3612 3.32037 69.1435C3.34674 69.8905 3.54011 70.4267 3.90047 70.7519C4.26962 71.0771 4.75303 71.2397 5.3507 71.2397C5.74622 71.2397 6.09779 71.1694 6.40542 71.0288C6.72184 70.8881 6.96794 70.6684 7.14372 70.3696C7.3283 70.0707 7.42059 69.6884 7.42059 69.2226V68.8139H5.81214C5.72425 68.8139 5.64954 68.7831 5.58801 68.7216C5.52649 68.66 5.49573 68.5809 5.49573 68.4843V67.7855C5.49573 67.6888 5.52649 67.6097 5.58801 67.5482C5.64954 67.4867 5.72425 67.4559 5.81214 67.4559H8.96311C9.05979 67.4559 9.1345 67.4867 9.18724 67.5482C9.24876 67.6097 9.27953 67.6888 9.27953 67.7855V69.1698C9.27953 69.9081 9.11692 70.5454 8.79172 71.0815C8.4753 71.6176 8.01826 72.0307 7.42059 72.3208C6.8317 72.6108 6.13295 72.7559 5.32434 72.7559ZM10.2096 72.624C10.1393 72.624 10.0734 72.5977 10.0119 72.5449C9.95912 72.4922 9.93275 72.4263 9.93275 72.3472C9.93275 72.312 9.94154 72.2725 9.95912 72.2285L13.1365 63.7248C13.1628 63.637 13.2112 63.5622 13.2815 63.5007C13.3606 63.4304 13.4661 63.3952 13.5979 63.3952H15.0349C15.1668 63.3952 15.2679 63.4304 15.3382 63.5007C15.4085 63.5622 15.4612 63.637 15.4964 63.7248L18.6737 72.2285C18.6825 72.2725 18.6869 72.312 18.6869 72.3472C18.6869 72.4263 18.6605 72.4922 18.6078 72.5449C18.5551 72.5977 18.4935 72.624 18.4232 72.624H17.2762C17.1532 72.624 17.0609 72.5977 16.9994 72.5449C16.9466 72.4834 16.9115 72.4263 16.8939 72.3735L16.2742 70.7651H12.3586L11.739 72.3735C11.7214 72.4263 11.6818 72.4834 11.6203 72.5449C11.5676 72.5977 11.4797 72.624 11.3566 72.624H10.2096ZM12.82 69.2489H15.8128L14.3098 65.1751L12.82 69.2489ZM21.2989 72.624C21.211 72.624 21.1363 72.5933 21.0747 72.5317C21.0132 72.4702 20.9825 72.3955 20.9825 72.3076V65.0169H18.5434C18.4555 65.0169 18.3808 64.9861 18.3193 64.9246C18.2578 64.8631 18.227 64.7884 18.227 64.7005V63.7248C18.227 63.6282 18.2578 63.5491 18.3193 63.4875C18.3808 63.426 18.4555 63.3952 18.5434 63.3952H25.2672C25.3639 63.3952 25.443 63.426 25.5046 63.4875C25.5661 63.5491 25.5968 63.6282 25.5968 63.7248V64.7005C25.5968 64.7884 25.5661 64.8631 25.5046 64.9246C25.443 64.9861 25.3639 65.0169 25.2672 65.0169H22.8414V72.3076C22.8414 72.3955 22.8106 72.4702 22.7491 72.5317C22.6876 72.5933 22.6085 72.624 22.5118 72.624H21.2989ZM27.251 72.624C27.1631 72.624 27.0884 72.5933 27.0269 72.5317C26.9654 72.4702 26.9346 72.3955 26.9346 72.3076V63.7248C26.9346 63.6282 26.9654 63.5491 27.0269 63.4875C27.0884 63.426 27.1631 63.3952 27.251 63.3952H33.052C33.1486 63.3952 33.2278 63.426 33.2893 63.4875C33.3508 63.5491 33.3816 63.6282 33.3816 63.7248V64.595C33.3816 64.6829 33.3508 64.7576 33.2893 64.8191C33.2278 64.8806 33.1486 64.9114 33.052 64.9114H28.7144V67.245H32.7619C32.8586 67.245 32.9377 67.2757 32.9992 67.3373C33.0608 67.39 33.0915 67.4647 33.0915 67.5614V68.3788C33.0915 68.4755 33.0608 68.5546 32.9992 68.6161C32.9377 68.6688 32.8586 68.6952 32.7619 68.6952H28.7144V71.1079H33.1574C33.2541 71.1079 33.3332 71.1386 33.3947 71.2002C33.4563 71.2617 33.487 71.3408 33.487 71.4375V72.3076C33.487 72.3955 33.4563 72.4702 33.3947 72.5317C33.3332 72.5933 33.2541 72.624 33.1574 72.624H27.251ZM36.6521 72.624C36.5203 72.624 36.4148 72.5889 36.3357 72.5186C36.2654 72.4394 36.217 72.3428 36.1907 72.2285L34.6218 63.7776C34.6218 63.7512 34.6174 63.7292 34.6086 63.7117C34.6086 63.6941 34.6086 63.6809 34.6086 63.6721C34.6086 63.593 34.635 63.5271 34.6877 63.4744C34.7492 63.4216 34.8151 63.3952 34.8855 63.3952H36.0456C36.2654 63.3952 36.3884 63.4831 36.4148 63.6589L37.5091 69.6313L38.6956 65.7684C38.722 65.698 38.7659 65.6277 38.8275 65.5574C38.8978 65.4783 38.9989 65.4388 39.1307 65.4388H39.8426C39.9833 65.4388 40.0843 65.4783 40.1459 65.5574C40.2074 65.6277 40.2469 65.698 40.2645 65.7684L41.4643 69.6181L42.5585 63.6589C42.5849 63.4831 42.7079 63.3952 42.9277 63.3952H44.0879C44.1582 63.3952 44.2197 63.4216 44.2724 63.4744C44.3252 63.5271 44.3515 63.593 44.3515 63.6721C44.3515 63.6809 44.3515 63.6941 44.3515 63.7117C44.3515 63.7292 44.3472 63.7512 44.3384 63.7776L42.7695 72.2285C42.7519 72.3428 42.7036 72.4394 42.6244 72.5186C42.5453 72.5889 42.4399 72.624 42.308 72.624H41.4247C41.2929 72.624 41.1874 72.5889 41.1083 72.5186C41.038 72.4482 40.9896 72.3735 40.9633 72.2944L39.4867 67.891L38.0101 72.2944C37.9749 72.3735 37.9222 72.4482 37.8519 72.5186C37.7815 72.5889 37.6761 72.624 37.5354 72.624H36.6521ZM44.9591 72.624C44.8888 72.624 44.8229 72.5977 44.7614 72.5449C44.7086 72.4922 44.6823 72.4263 44.6823 72.3472C44.6823 72.312 44.6911 72.2725 44.7086 72.2285L47.886 63.7248C47.9124 63.637 47.9607 63.5622 48.031 63.5007C48.1101 63.4304 48.2156 63.3952 48.3474 63.3952H49.7845C49.9163 63.3952 50.0174 63.4304 50.0877 63.5007C50.158 63.5622 50.2108 63.637 50.2459 63.7248L53.4232 72.2285C53.432 72.2725 53.4364 72.312 53.4364 72.3472C53.4364 72.4263 53.4101 72.4922 53.3573 72.5449C53.3046 72.5977 53.2431 72.624 53.1728 72.624H52.0257C51.9027 72.624 51.8104 72.5977 51.7489 72.5449C51.6961 72.4834 51.661 72.4263 51.6434 72.3735L51.0238 70.7651H47.1081L46.4885 72.3735C46.4709 72.4263 46.4314 72.4834 46.3698 72.5449C46.3171 72.5977 46.2292 72.624 46.1061 72.624H44.9591ZM47.5696 69.2489H50.5623L49.0594 65.1751L47.5696 69.2489ZM56.4053 72.624C56.3174 72.624 56.2427 72.5933 56.1812 72.5317C56.1196 72.4702 56.0889 72.3955 56.0889 72.3076V69.328L52.9775 63.8171C52.9687 63.7996 52.9599 63.7776 52.9511 63.7512C52.9423 63.7248 52.9379 63.6985 52.9379 63.6721C52.9379 63.593 52.9643 63.5271 53.017 63.4744C53.0698 63.4216 53.1313 63.3952 53.2016 63.3952H54.375C54.4804 63.3952 54.5639 63.4216 54.6255 63.4744C54.6958 63.5271 54.7441 63.5842 54.7705 63.6457L57.0118 67.4823L59.2398 63.6457C59.275 63.5842 59.3233 63.5271 59.3849 63.4744C59.4552 63.4216 59.5431 63.3952 59.6486 63.3952H60.8087C60.8878 63.3952 60.9538 63.4216 61.0065 63.4744C61.0592 63.5271 61.0856 63.593 61.0856 63.6721C61.0856 63.6985 61.0812 63.7248 61.0724 63.7512C61.0724 63.7776 61.0636 63.7996 61.0461 63.8171L57.9346 69.328V72.3076C57.9346 72.3955 57.9039 72.4702 57.8423 72.5317C57.7808 72.5933 57.7017 72.624 57.605 72.624H56.4053Z" fill="#2A303B"/>
</svg>
