<svg width="18" height="23" viewBox="0 0 18 23" fill="none" xmlns="http://www.w3.org/2000/svg">
<g clip-path="url(#clip0_3402_9430)">
<path d="M18.0008 6.03783V6.51675C17.853 6.97286 17.529 7.26363 17.1084 7.46317C16.9436 7.54299 16.7674 7.62281 16.5912 7.67983C15.3351 8.12453 14.0791 8.55783 12.823 9.00254C12.5843 9.08806 12.3512 9.21349 12.1239 9.33322C11.9534 9.42444 11.8511 9.57838 11.8511 9.77222C11.8454 10.1257 11.8284 10.4792 11.8625 10.8327C12.0784 12.8852 12.4876 14.8977 12.8628 16.9217C13.1015 18.1988 13.3402 19.4759 13.5732 20.7587C13.6983 21.4429 13.3459 21.9902 12.6752 22.1784C12.6241 22.1955 12.5615 22.2183 12.5047 22.2354H11.942C11.2714 22.0529 10.9815 21.5569 10.8508 20.9241C10.7826 20.5763 10.7257 20.2285 10.6462 19.8807C10.2881 18.3186 9.93571 16.7564 9.55491 15.1999C9.46965 14.8578 9.32756 14.5272 9.1741 14.2136C9.04906 13.9456 8.92402 13.957 8.77625 14.2193C8.76488 14.2421 8.75352 14.2649 8.73647 14.282C8.71373 14.3276 8.691 14.3732 8.67395 14.4188C8.66258 14.4416 8.6569 14.4644 8.64553 14.4872C8.52617 14.835 8.38977 15.1828 8.31019 15.5363C7.92371 17.2695 7.54859 19.0084 7.18484 20.7473C7.04275 21.4315 6.80972 22.0244 6.05948 22.2354H5.49112C5.37745 22.1955 5.2581 22.167 5.15011 22.1214C4.59311 21.9047 4.29756 21.3973 4.39987 20.8101C4.82614 18.444 5.27515 16.0779 5.67868 13.7062C5.87761 12.5374 6.02538 11.3629 6.13337 10.1827C6.20726 9.32752 6.03107 9.14507 5.21831 8.88851C3.98497 8.50082 2.75162 8.13023 1.52965 7.72544C1.16589 7.60571 0.802143 7.42897 0.489545 7.20661C-0.255009 6.67069 -0.118602 5.37078 0.705522 4.96028C0.961284 4.83485 1.21705 4.84625 1.48418 4.92607C3.2802 5.4677 5.10464 5.8725 6.96318 6.14046C8.48639 6.35711 9.99823 6.3058 11.5101 6.06634C13.1697 5.80408 14.8009 5.42209 16.415 4.95458C17.1482 4.74363 17.6654 5.01729 17.9098 5.75277C17.9382 5.84399 17.9667 5.94091 18.0008 6.03783Z" fill="#323E48"/>
<path d="M11.4204 2.42878C11.4204 3.7686 10.3348 4.86326 8.99917 4.86326C7.66352 4.86326 6.57795 3.7686 6.57227 2.43448C6.57227 1.09466 7.66352 0 8.99348 0C10.3291 0 11.4204 1.08896 11.4204 2.42878Z" fill="#323E48"/>
</g>
<defs>
<clipPath id="clip0_3402_9430">
<rect width="18" height="22.2353" fill="white"/>
</clipPath>
</defs>
</svg>
