<svg width="20" height="20" viewBox="0 0 20 20" fill="none" xmlns="http://www.w3.org/2000/svg">
<path d="M10 19C14.9706 19 19 14.9706 19 10C19 5.02944 14.9706 1 10 1C5.02944 1 1 5.02944 1 10C1 14.9706 5.02944 19 10 19Z" stroke="#2A303B" stroke-width="1.5" stroke-miterlimit="10" stroke-linecap="round"/>
<path d="M8.4932 18.625C6.9857 16.5175 6.0332 13.435 6.0332 10C6.0332 6.565 6.9857 3.4825 8.4932 1.375" stroke="#2A303B" stroke-width="1.5" stroke-miterlimit="10" stroke-linecap="round"/>
<path d="M11.8154 1.375C13.3229 3.4825 14.2754 6.565 14.2754 10C14.2754 13.435 13.3229 16.5175 11.8154 18.625" stroke="#2A303B" stroke-width="1.5" stroke-miterlimit="10" stroke-linecap="round"/>
<path d="M1.81738 6.72949H18.1824" stroke="#2A303B" stroke-width="1.5" stroke-miterlimit="10" stroke-linecap="round"/>
<path d="M1.81738 13.2705H18.1824" stroke="#2A303B" stroke-width="1.5" stroke-miterlimit="10" stroke-linecap="round"/>
</svg>
